<?xml version="1.0" encoding="UTF-8" standalone="no"?>
<!-- Created with Inkscape (http://www.inkscape.org/) -->

<svg
   width="1920"
   height="1080"
   viewBox="0 0 508 285.75"
   version="1.1"
   id="svg5"
   xml:space="preserve"
   inkscape:version="1.2.1 (9c6d41e, 2022-07-14)"
   sodipodi:docname="logo.svg"
   xmlns:inkscape="http://www.inkscape.org/namespaces/inkscape"
   xmlns:sodipodi="http://sodipodi.sourceforge.net/DTD/sodipodi-0.dtd"
   xmlns="http://www.w3.org/2000/svg"
   xmlns:svg="http://www.w3.org/2000/svg"><sodipodi:namedview
     id="namedview7"
     pagecolor="#ffffff"
     bordercolor="#000000"
     borderopacity="0.25"
     inkscape:showpageshadow="2"
     inkscape:pageopacity="0.0"
     inkscape:pagecheckerboard="0"
     inkscape:deskcolor="#d1d1d1"
     inkscape:document-units="px"
     showgrid="false"
     inkscape:zoom="0.3234748"
     inkscape:cx="879.51209"
     inkscape:cy="853.23493"
     inkscape:window-width="1512"
     inkscape:window-height="916"
     inkscape:window-x="0"
     inkscape:window-y="38"
     inkscape:window-maximized="0"
     inkscape:current-layer="layer1" /><defs
     id="defs2" /><g
     inkscape:label="Layer 1"
     inkscape:groupmode="layer"
     id="layer1"><rect
       style="fill:#3e4856;fill-opacity:1;stroke-width:0.3029"
       id="rect678"
       width="600.36877"
       height="373.79907"
       x="-32.717644"
       y="-30.263821" /><g
       id="g216"
       transform="matrix(0.3382601,0,0,0.3382601,35.315073,53.205705)"><polygon
         style="fill:#e1effb"
         points="123.105,340.879 388.895,340.879 388.895,131.362 388.835,131.362 255.97,42.979 123.105,131.362 "
         id="polygon112" /><polygon
         style="fill:#ccdfed"
         points="388.895,131.362 388.835,131.362 255.97,42.979 223.722,64.431 343.38,144.029 343.44,144.029 343.44,340.879 388.895,340.879 "
         id="polygon114" /><path
         style="fill:#ff4c4c"
         d="M 98.259,166.849 253.754,63.413 c 1.361,-0.905 3.132,-0.905 4.493,0 L 413.742,166.85 c 4.379,2.913 10.078,2.913 14.457,0 v 0 c 7.763,-5.164 7.763,-16.569 0,-21.733 L 258.247,32.063 c -1.361,-0.905 -3.132,-0.905 -4.493,0 L 83.802,145.116 c -7.764,5.164 -7.764,16.569 0,21.733 v 0 c 4.378,2.913 10.078,2.913 14.457,0 z"
         id="path116" /><path
         style="fill:#ffb125"
         d="m 295.496,185.066 h -78.993 c -3.291,0 -5.958,2.668 -5.958,5.958 v 149.93 h 90.909 v -149.93 c 10e-4,-3.291 -2.667,-5.958 -5.958,-5.958 z"
         id="path118" /><path
         style="fill:#ff901d"
         d="m 295.496,185.066 h -45.455 c 3.291,0 5.958,2.667 5.958,5.958 v 149.93 h 45.455 v -149.93 c 10e-4,-3.291 -2.667,-5.958 -5.958,-5.958 z"
         id="path120" /><path
         style="fill:#2d5871"
         d="M 413.928,321.83 H 98.072 c -6.676,0 -12.088,5.412 -12.088,12.088 v 0 c 0,6.676 5.412,12.088 12.088,12.088 h 315.857 c 6.676,0 12.088,-5.412 12.088,-12.088 v 0 c -10e-4,-6.676 -5.413,-12.088 -12.089,-12.088 z"
         id="path122" /><path
         style="fill:#ffb125"
         d="m 277.605,239.19 c -4.142,0 -7.5,3.357 -7.5,7.5 v 16.319 c 0,4.143 3.358,7.5 7.5,7.5 4.142,0 7.5,-3.357 7.5,-7.5 V 246.69 c 0,-4.142 -3.358,-7.5 -7.5,-7.5 z"
         id="path124" /><g
         id="g130">
	<path
   style="fill:#fed9a8"
   d="m 358.925,459.01 3.201,8.331 H 270.07 l 7.446,-80.555 c 4.718,-21.663 20.379,-39.304 41.329,-46.556 l 43.459,-15.044 41.147,-42.561 c 4.247,-4.393 11.039,-5.451 16.219,-2.21 5.781,3.618 7.685,11.064 4.461,16.981 l -11.322,20.777 29.121,-14.198 27.802,-33.514 20.15,-44.456 c 1.41,-3.112 5.238,-6.475 8.505,-7.473 v 0 c 8.109,-2.479 15.669,5.162 13.104,13.244 l -16.504,52.013 c -4.668,14.711 -12.22,28.345 -22.214,40.105 l -16.33,19.215 c -10.865,12.785 -24.351,23.102 -39.585,30.134 -17.133,7.909 -35.075,17.831 -47.675,31.451 -13.522,14.616 -17.4,35.729 -10.258,54.316 z"
   id="path126" />
	<path
   style="fill:#fed9a8"
   d="m 153.075,459.01 -3.201,8.331 h 92.056 l -7.446,-80.555 c -4.718,-21.663 -20.379,-39.304 -41.329,-46.556 l -43.459,-15.044 -41.147,-42.561 c -4.247,-4.393 -11.039,-5.451 -16.219,-2.21 -5.781,3.618 -7.685,11.064 -4.461,16.981 L 99.191,318.173 70.07,303.976 42.268,270.462 22.118,226.006 c -1.41,-3.112 -5.238,-6.475 -8.505,-7.473 v 0 c -8.109,-2.479 -15.669,5.162 -13.104,13.244 l 16.504,52.013 c 4.668,14.711 12.22,28.345 22.214,40.105 l 16.33,19.215 c 10.865,12.785 24.351,23.102 39.585,30.134 17.133,7.909 35.075,17.831 47.675,31.451 13.522,14.615 17.4,35.728 10.258,54.315 z"
   id="path128" />
</g><g
         id="g140">
	<path
   style="fill:#f4c892"
   d="m 91.936,314.637 21.506,38.818 c 3.276,5.913 9.503,9.582 16.262,9.582 v 0 c 1.685,0 2.635,-1.935 1.606,-3.268 L 99.191,318.175 Z"
   id="path132" />
	<path
   style="fill:#f4c892"
   d="m 412.842,318.158 -0.027,0.016 -32.119,41.594 c -1.03,1.333 -0.079,3.269 1.606,3.269 6.76,0 12.986,-3.669 16.262,-9.582 l 21.519,-38.828 z"
   id="path134" />
	<path
   style="fill:#f4c892"
   d="M 234.483,386.786 C 229.765,365.123 214.104,347.482 193.154,340.23 L 149.695,325.186 108.553,282.63 c -4.087,-4.228 -10.555,-5.414 -15.683,-2.535 -2.047,1.149 -3.647,2.762 -4.756,4.624 4.709,-1.62 10.101,-0.3 13.684,3.406 l 41.147,42.561 43.459,26.647 c 20.951,7.252 7.481,73.673 7.481,73.673 v 0 c -2.579,5.24 -7.912,8.559 -13.752,8.559 h -23.544 c 0.061,6.538 -1.09,13.137 -3.514,19.445 l -3.201,8.331 H 176 241.93 Z"
   id="path136" />
	<path
   style="fill:#f4c892"
   d="m 500.239,218.143 c 1.063,2.25 1.349,4.916 0.487,7.634 l -16.504,52.013 c -4.668,14.711 -12.22,28.344 -22.214,40.105 l -16.33,19.215 c -10.865,12.785 -24.351,23.102 -39.585,30.134 -10.412,4.806 -38.961,15.27 -62.587,25.797 -14.22,6.336 -24.88,18.126 -30.003,32.256 -3.089,8.518 -11.076,14.269 -20.137,14.269 h -20.727 l -2.568,27.776 h 40.041 52.015 l -3.201,-8.331 c -0.273,-0.71 -0.524,-1.424 -0.765,-2.141 -0.066,-0.195 -0.128,-0.391 -0.191,-0.587 -0.187,-0.578 -0.364,-1.159 -0.53,-1.741 -0.044,-0.153 -0.09,-0.306 -0.132,-0.459 -0.207,-0.753 -0.401,-1.509 -0.574,-2.267 -0.002,-0.009 -0.004,-0.019 -0.006,-0.028 -0.173,-0.759 -0.326,-1.521 -0.465,-2.284 -0.016,-0.088 -0.031,-0.175 -0.047,-0.263 -0.567,-3.212 -0.835,-6.451 -0.804,-9.676 h -0.013 c 0.105,-12.587 4.708,-24.95 13.481,-34.54 12.567,-13.738 30.572,-23.734 47.785,-31.692 15.295,-7.071 28.862,-17.379 39.775,-30.218 5.337,-6.28 11.164,-13.136 16.337,-19.223 9.995,-11.76 17.544,-25.391 22.212,-40.102 l 16.504,-52.013 c 2.366,-7.462 -3.897,-14.541 -11.254,-13.634 z"
   id="path138" />
</g><g
         id="g146">
	<path
   style="fill:#2d5871"
   d="m 155.098,450.065 h 87.01 c 5.279,0 9.558,4.279 9.558,9.558 v 11.435 c 0,5.279 -4.279,9.558 -9.558,9.558 h -87.01 c -5.279,0 -9.558,-4.279 -9.558,-9.558 v -11.435 c 0,-5.279 4.28,-9.558 9.558,-9.558 z"
   id="path142" />
	<path
   style="fill:#2d5871"
   d="m 272.828,450.065 h 87.01 c 5.279,0 9.558,4.279 9.558,9.558 v 11.435 c 0,5.279 -4.279,9.558 -9.558,9.558 h -87.01 c -5.279,0 -9.558,-4.279 -9.558,-9.558 v -11.435 c 0,-5.279 4.279,-9.558 9.558,-9.558 z"
   id="path144" />
</g><g
         id="g148">
</g><g
         id="g150">
</g><g
         id="g152">
</g><g
         id="g154">
</g><g
         id="g156">
</g><g
         id="g158">
</g><g
         id="g160">
</g><g
         id="g162">
</g><g
         id="g164">
</g><g
         id="g166">
</g><g
         id="g168">
</g><g
         id="g170">
</g><g
         id="g172">
</g><g
         id="g174">
</g><g
         id="g176">
</g></g><text
       xml:space="preserve"
       style="font-size:42.3333px;line-height:1.6;fill:#f5f5f5;stroke-width:0.264583;fill-opacity:1"
       x="344.07767"
       y="129.2347"
       id="text430"
       inkscape:label="text430"><tspan
         sodipodi:role="line"
         id="tspan428"
         style="font-style:normal;font-variant:normal;font-weight:500;font-stretch:normal;font-size:42.3333px;font-family:'Helvetica Neue';-inkscape-font-specification:'Helvetica Neue Medium';text-align:center;text-anchor:middle;stroke-width:0.264583;fill:#f5f5f5;fill-opacity:1"
         x="344.07767"
         y="129.2347">Township</tspan><tspan
         sodipodi:role="line"
         style="font-style:normal;font-variant:normal;font-weight:500;font-stretch:normal;font-size:42.3333px;font-family:'Helvetica Neue';-inkscape-font-specification:'Helvetica Neue Medium';text-align:center;text-anchor:middle;stroke-width:0.264583;fill:#f5f5f5;fill-opacity:1"
         x="344.07767"
         y="198.26434"
         id="tspan432">Grid Display</tspan></text></g></svg>
